<!DOCTYPE svg PUBLIC "-//W3C//DTD SVG 1.1//EN" "http://www.w3.org/Graphics/SVG/1.1/DTD/svg11.dtd">
<!-- Uploaded to: SVG Repo, www.svgrepo.com, Transformed by: SVG Repo Mixer Tools -->
<svg width="69px" height="69px" viewBox="-10 -10 120.00 120.00" xmlns="http://www.w3.org/2000/svg" fill="rgb(195, 175, 115)" stroke="rgb(195, 175, 115)">
<g id="SVGRepo_bgCarrier" stroke-width="0">
<path transform="translate(-10, -10), scale(3.75)" d="M16,31.4173183111768C19.33967532816074,32.088884495926614,21.846357731425048,28.03305860311361,23.69725515028024,25.173231478460764C25.134745559749074,22.952160757550697,24.52616623452802,20.18969847422551,24.956111273008332,17.579204059658608C25.377989523747196,15.017688706268888,27.108766016654688,12.54760942158368,26.175666801314808,10.125076033076962C25.178097541155537,7.535164049061928,22.487937815318553,6.193774546065251,20.05577689131667,4.8568445727616005C17.10156645601167,3.232950183443383,13.985229620679991,0.6131273180423618,10.781862314693596,1.6632845380154428C7.567493400585516,2.717048405961334,6.527880309477101,6.647530805846843,5.158444008609097,9.740624729936055C3.9561342867159173,12.456236177729586,2.3054896139280343,15.473662644526891,3.4550811927247835,18.21200765651967C4.556871138803831,20.83648843626517,8.56485396390011,20.46088649431123,10.525281604849386,22.52451531586235C12.997327732032808,25.126695335008243,12.481238008623576,30.709740078746417,16,31.4173183111768" fill="rgb(145, 189, 145)" strokewidth="0"/>
</g>
<g id="SVGRepo_tracerCarrier" stroke-linecap="round" stroke-linejoin="round"/>
<g id="SVGRepo_iconCarrier"> <rect fill="none" height="6" rx="2" width="34" x="33" y="50"/> <rect fill="none" height="6" rx="2" width="30" x="33" y="62"/> <g> <path d="m63 36h10.6a1.37 1.37 0 0 0 1.4-1.4 1.28 1.28 0 0 0 -.4-1l-13.2-13.2a1.28 1.28 0 0 0 -1-.4 1.37 1.37 0 0 0 -1.4 1.4v10.6a4 4 0 0 0 4 4z"/> <path d="m73 42h-14a6 6 0 0 1 -6-6v-14a2 2 0 0 0 -2-2h-20a6 6 0 0 0 -6 6v48a6 6 0 0 0 6 6h38a6 6 0 0 0 6-6v-30a2 2 0 0 0 -2-2zm-40-2a2 2 0 0 1 2-2h8.18a2 2 0 0 1 2 2v2a2 2 0 0 1 -2 2h-8.18a1.94 1.94 0 0 1 -2-2zm30 26a2 2 0 0 1 -2 2h-26a2 2 0 0 1 -2-2v-2a2 2 0 0 1 2-2h26a2 2 0 0 1 2 2zm4-12a2 2 0 0 1 -2 2h-30a2 2 0 0 1 -2-2v-2a2 2 0 0 1 2-2h30a2 2 0 0 1 2 2z"/> </g> </g>
</svg>