<!DOCTYPE svg PUBLIC "-//W3C//DTD SVG 1.1//EN" "http://www.w3.org/Graphics/SVG/1.1/DTD/svg11.dtd">
<!-- Uploaded to: SVG Repo, www.svgrepo.com, Transformed by: SVG Repo Mixer Tools -->
<svg width="69px" height="69px" viewBox="-10 -10 120.00 120.00" xmlns="http://www.w3.org/2000/svg" fill="rgb(195, 175, 115)" stroke="rgb(195, 175, 115)">
<g id="SVGRepo_bgCarrier" stroke-width="0" transform="translate(9,9), scale(0.82)">
<path transform="translate(-10, -10), scale(3.75)" d="M16,31.004184403456748C18.4920887123487,30.288808024128805,18.40355167484036,26.158636419858947,20.694606333321694,24.94482503987969C22.97126414649594,23.738641175291583,26.32479224701516,26.14537051104121,28.29795942385799,24.488668484208944C30.098310362345504,22.977065674367946,29.34672615938877,19.978104608970575,29.40893385264536,17.62813934128431C29.46684805413917,15.440365532426583,29.899845164784224,12.998932563240176,28.649664509996466,11.202615045691296C27.395579740902882,9.40068791573063,24.55944828915388,9.647668389916095,22.874941111097474,8.239795683725218C21.258659823224786,6.88894462154779,20.94077699268985,4.350499226412086,19.14119867132695,3.2556560143520343C17.195884622752903,2.072148824849245,14.810203361508934,1.8168819429114227,12.537073033102692,1.9503530081805316C10.031413972979658,2.0974774294143517,7.310589635849103,2.40665236527974,5.423093027544658,4.0611400426406945C3.5345305198849335,5.716562035507623,3.2153357406087126,8.466672416112704,2.3950769311180906,10.840333260727732C1.5956895441919965,13.153596487006174,-0.0974932766629143,15.533975741325566,0.6534863112712817,17.863404127633C1.4226620687013798,20.2492743592673,4.579984223558033,20.856954560433216,6.232120905453868,22.742280127106277C7.651050155525493,24.36148247384585,7.996091055884812,26.72781837697592,9.63988802186419,28.118180916399634C11.443616049702023,29.643816948779193,13.729290624875071,31.656011861778623,16,31.004184403456748" fill="rgb(145, 189, 145)" strokewidth="0"/>
</g>
<g id="SVGRepo_tracerCarrier" stroke-linecap="round" stroke-linejoin="round" stroke="#ffffff" stroke-width="0.2"/>
<g id="SVGRepo_iconCarrier"> <rect fill="none" height="6" rx="2" width="34" x="33" y="50"/> <rect fill="none" height="6" rx="2" width="30" x="33" y="62"/> <g> <path d="m63 36h10.6a1.37 1.37 0 0 0 1.4-1.4 1.28 1.28 0 0 0 -.4-1l-13.2-13.2a1.28 1.28 0 0 0 -1-.4 1.37 1.37 0 0 0 -1.4 1.4v10.6a4 4 0 0 0 4 4z"/> <path d="m73 42h-14a6 6 0 0 1 -6-6v-14a2 2 0 0 0 -2-2h-20a6 6 0 0 0 -6 6v48a6 6 0 0 0 6 6h38a6 6 0 0 0 6-6v-30a2 2 0 0 0 -2-2zm-40-2a2 2 0 0 1 2-2h8.18a2 2 0 0 1 2 2v2a2 2 0 0 1 -2 2h-8.18a1.94 1.94 0 0 1 -2-2zm30 26a2 2 0 0 1 -2 2h-26a2 2 0 0 1 -2-2v-2a2 2 0 0 1 2-2h26a2 2 0 0 1 2 2zm4-12a2 2 0 0 1 -2 2h-30a2 2 0 0 1 -2-2v-2a2 2 0 0 1 2-2h30a2 2 0 0 1 2 2z"/> </g> </g>
</svg>