<svg width="69" height="69" viewBox="0 0 69 69" fill="none" xmlns="http://www.w3.org/2000/svg">
<path d="M34.5 67.7434C41.7012 69.1915 47.1063 60.4461 51.0973 54.2796C54.1968 49.4904 52.8846 43.5339 53.8117 37.905C54.7213 32.3817 58.4533 27.0556 56.4413 21.832C54.2903 16.2475 48.4897 13.3552 43.2453 10.4724C36.8753 6.9709 30.1557 1.3219 23.2484 3.5863C16.3175 5.85848 14.0758 14.3336 11.1229 21.0031C8.53046 26.8586 4.97126 33.3649 7.45007 39.2695C9.8258 44.9285 18.468 44.1186 22.6952 48.5683C28.0255 54.1793 26.9127 66.2177 34.5 67.7434Z" fill="#203520"/>
<path d="M43.1251 34.5H25.8751C25.24 34.5 24.7251 35.0149 24.7251 35.65V36.8C24.7251 37.4351 25.24 37.95 25.8751 37.95H43.1251C43.7602 37.95 44.2751 37.4351 44.2751 36.8V35.65C44.2751 35.0149 43.7602 34.5 43.1251 34.5Z" stroke="#C3AF73" stroke-width="0.575"/>
<path d="M40.8251 41.3999H25.8751C25.24 41.3999 24.7251 41.9148 24.7251 42.5499V43.6999C24.7251 44.335 25.24 44.8499 25.8751 44.8499H40.8251C41.4602 44.8499 41.9751 44.335 41.9751 43.6999V42.5499C41.9751 41.9148 41.4602 41.3999 40.8251 41.3999Z" stroke="#C3AF73" stroke-width="0.575"/>
<path d="M41.975 26.4501H48.07C48.1764 26.4524 48.2821 26.4332 48.3808 26.3936C48.4796 26.354 48.5692 26.2948 48.6445 26.2196C48.7197 26.1443 48.7789 26.0546 48.8185 25.9559C48.8581 25.8572 48.8774 25.7514 48.875 25.6451C48.8807 25.5383 48.8631 25.4315 48.8234 25.3322C48.7837 25.2329 48.7228 25.1435 48.645 25.0701L41.055 17.4801C40.9816 17.4023 40.8922 17.3414 40.7929 17.3017C40.6936 17.2619 40.5868 17.2443 40.48 17.2501C40.3736 17.2477 40.2679 17.2669 40.1692 17.3066C40.0704 17.3462 39.9808 17.4054 39.9055 17.4806C39.8303 17.5558 39.7711 17.6455 39.7315 17.7443C39.6919 17.843 39.6726 17.9487 39.675 18.0551V24.1501C39.675 24.7601 39.9173 25.3451 40.3487 25.7764C40.78 26.2078 41.365 26.4501 41.975 26.4501Z" fill="#C3AF73" stroke="#C3AF73" stroke-width="0.575"/>
<path d="M47.725 29.9H39.675C38.76 29.9 37.8825 29.5365 37.2355 28.8895C36.5885 28.2425 36.225 27.365 36.225 26.45V18.4C36.225 18.095 36.1038 17.8025 35.8882 17.5868C35.6725 17.3712 35.38 17.25 35.075 17.25H23.575C22.66 17.25 21.7825 17.6135 21.1355 18.2605C20.4885 18.9075 20.125 19.785 20.125 20.7V48.3C20.125 49.215 20.4885 50.0925 21.1355 50.7395C21.7825 51.3865 22.66 51.75 23.575 51.75H45.425C46.34 51.75 47.2175 51.3865 47.8645 50.7395C48.5115 50.0925 48.875 49.215 48.875 48.3V31.05C48.875 30.745 48.7538 30.4525 48.5382 30.2368C48.3225 30.0212 48.03 29.9 47.725 29.9ZM24.725 28.75C24.725 28.445 24.8462 28.1525 25.0618 27.9368C25.2775 27.7212 25.57 27.6 25.875 27.6H30.5785C30.8835 27.6 31.176 27.7212 31.3917 27.9368C31.6073 28.1525 31.7285 28.445 31.7285 28.75V29.9C31.7285 30.205 31.6073 30.4975 31.3917 30.7132C31.176 30.9288 30.8835 31.05 30.5785 31.05H25.875C25.7227 31.0548 25.571 31.0283 25.4293 30.9722C25.2876 30.9161 25.1589 30.8316 25.0512 30.7238C24.9434 30.6161 24.8589 30.4874 24.8028 30.3457C24.7467 30.204 24.7202 30.0523 24.725 29.9V28.75ZM41.975 43.7C41.975 44.005 41.8538 44.2975 41.6382 44.5132C41.4225 44.7288 41.13 44.85 40.825 44.85H25.875C25.57 44.85 25.2775 44.7288 25.0618 44.5132C24.8462 44.2975 24.725 44.005 24.725 43.7V42.55C24.725 42.245 24.8462 41.9525 25.0618 41.7368C25.2775 41.5212 25.57 41.4 25.875 41.4H40.825C41.13 41.4 41.4225 41.5212 41.6382 41.7368C41.8538 41.9525 41.975 42.245 41.975 42.55V43.7ZM44.275 36.8C44.275 37.105 44.1538 37.3975 43.9382 37.6132C43.7225 37.8288 43.43 37.95 43.125 37.95H25.875C25.57 37.95 25.2775 37.8288 25.0618 37.6132C24.8462 37.3975 24.725 37.105 24.725 36.8V35.65C24.725 35.345 24.8462 35.0525 25.0618 34.8368C25.2775 34.6212 25.57 34.5 25.875 34.5H43.125C43.43 34.5 43.7225 34.6212 43.9382 34.8368C44.1538 35.0525 44.275 35.345 44.275 35.65V36.8Z" fill="#C3AF73" stroke="#C3AF73" stroke-width="0.575"/>
</svg>
