<!DOCTYPE svg PUBLIC "-//W3C//DTD SVG 1.1//EN" "http://www.w3.org/Graphics/SVG/1.1/DTD/svg11.dtd">
<!-- Uploaded to: SVG Repo, www.svgrepo.com, Transformed by: SVG Repo Mixer Tools -->
<svg version="1.1" id="Uploaded to svgrepo.com" xmlns="http://www.w3.org/2000/svg" xmlns:xlink="http://www.w3.org/1999/xlink" width="64px" height="64px" viewBox="0 0 32 32" xml:space="preserve" fill="rgb(217, 237, 219)">
<g id="SVGRepo_bgCarrier" stroke-width="0"/>
<g id="SVGRepo_tracerCarrier" stroke-linecap="round" stroke-linejoin="round"/>
<g id="SVGRepo_iconCarrier"> <style type="text/css"> .sharpcorners_een{fill:rgb(217, 237, 219);} .st0{fill:rgb(217, 237, 219);} </style> <path class="sharpcorners_een" d="M27.354,10.646l-0.707,0.707l2,2l-1.293,1.293l-3-3l-0.707,0.707l3,3l-1.293,1.293l-2-2 l-0.707,0.707l2,2l-1.293,1.293l-3-3l-0.707,0.707l3,3l-1.293,1.293l-2-2l-0.707,0.707l2,2l-1.293,1.293l-3-3l-0.707,0.707l3,3 l-1.293,1.293l-2-2l-0.707,0.707l2,2l-1.293,1.293l-3-3l-0.707,0.707l3,3l-1.293,1.293l-2-2l-0.707,0.707l2,2L11,31L1,21L21,1l10,10 l-1.646,1.646L27.354,10.646z"/> </g>
</svg>